name ./resultDataOpenSim/trcMotMarkerGrf/sub06/grf-03-01.mot
datacolumns 19
datarows 25
range 0.49600000 0.59200000
endheader

                time	     ground_force_vx	     ground_force_vy	     ground_force_vz	     ground_force_px	     ground_force_py	     ground_force_pz	   l_ground_force_vx	   l_ground_force_vy	   l_ground_force_vz	   l_ground_force_px	   l_ground_force_py	   l_ground_force_pz	     ground_torque_x	     ground_torque_y	     ground_torque_z	   l_ground_torque_x	   l_ground_torque_y	   l_ground_torque_z	
          0.49600000	        137.71707541	        730.39858653	        -42.36720827	         -0.79861903	          0.00000000	          0.13471329	          0.00000000	          0.00000000	          0.00000000	          0.00000000	          0.00000000	          0.00000000	          0.00000000	          1.70790969	          0.00000000	          0.00000000	          0.00000000	          0.00000000	
          0.50000000	        145.17863113	        741.75384149	        -42.96276579	         -0.79802394	          0.00000000	          0.13451222	          0.00000000	          0.00000000	          0.00000000	          0.00000000	          0.00000000	          0.00000000	          0.00000000	          1.71531242	          0.00000000	          0.00000000	          0.00000000	          0.00000000	
          0.50400000	        152.96549734	        751.48581928	        -42.95272996	         -0.79756332	          0.00000000	          0.13428752	          0.00000000	          0.00000000	          0.00000000	          0.00000000	          0.00000000	          0.00000000	          0.00000000	          1.75802681	          0.00000000	          0.00000000	          0.00000000	          0.00000000	
          0.50800000	        160.95363705	        759.44275547	        -42.25179634	         -0.79718418	          0.00000000	          0.13405735	          0.00000000	          0.00000000	          0.00000000	          0.00000000	          0.00000000	          0.00000000	          0.00000000	          1.84241366	          0.00000000	          0.00000000	          0.00000000	          0.00000000	
          0.51200000	        169.02806237	        765.50609584	        -40.89703173	         -0.79684485	          0.00000000	          0.13384021	          0.00000000	          0.00000000	          0.00000000	          0.00000000	          0.00000000	          0.00000000	          0.00000000	          1.96422406	          0.00000000	          0.00000000	          0.00000000	          0.00000000	
          0.51600000	        177.07707959	        769.58754271	        -39.04264570	         -0.79651275	          0.00000000	          0.13364537	          0.00000000	          0.00000000	          0.00000000	          0.00000000	          0.00000000	          0.00000000	          0.00000000	          2.10920244	          0.00000000	          0.00000000	          0.00000000	          0.00000000	
          0.52000000	        184.99495190	        771.61925794	        -36.93655974	         -0.79616675	          0.00000000	          0.13347708	          0.00000000	          0.00000000	          0.00000000	          0.00000000	          0.00000000	          0.00000000	          0.00000000	          2.25574695	          0.00000000	          0.00000000	          0.00000000	          0.00000000	
          0.52400000	        192.69066231	        771.54148585	        -34.87225005	         -0.79578938	          0.00000000	          0.13334147	          0.00000000	          0.00000000	          0.00000000	          0.00000000	          0.00000000	          0.00000000	          0.00000000	          2.37884856	          0.00000000	          0.00000000	          0.00000000	          0.00000000	
          0.52800000	        200.09223808	        769.29938476	        -33.13004075	         -0.79536761	          0.00000000	          0.13324684	          0.00000000	          0.00000000	          0.00000000	          0.00000000	          0.00000000	          0.00000000	          0.00000000	          2.45452680	          0.00000000	          0.00000000	          0.00000000	          0.00000000	
          0.53200000	        207.14299262	        764.85593826	        -31.91998128	         -0.79489795	          0.00000000	          0.13319883	          0.00000000	          0.00000000	          0.00000000	          0.00000000	          0.00000000	          0.00000000	          0.00000000	          2.46405333	          0.00000000	          0.00000000	          0.00000000	          0.00000000	
          0.53600000	        213.79531178	        758.20842366	        -31.33607300	         -0.79438571	          0.00000000	          0.13319680	          0.00000000	          0.00000000	          0.00000000	          0.00000000	          0.00000000	          0.00000000	          0.00000000	          2.39730308	          0.00000000	          0.00000000	          0.00000000	          0.00000000	
          0.54000000	        220.00853010	        749.39075745	        -31.33728461	         -0.79383734	          0.00000000	          0.13323418	          0.00000000	          0.00000000	          0.00000000	          0.00000000	          0.00000000	          0.00000000	          0.00000000	          2.25462456	          0.00000000	          0.00000000	          0.00000000	          0.00000000	
          0.54400000	        225.74971976	        738.46373747	        -31.75921895	         -0.79326447	          0.00000000	          0.13330211	          0.00000000	          0.00000000	          0.00000000	          0.00000000	          0.00000000	          0.00000000	          0.00000000	          2.04678936	          0.00000000	          0.00000000	          0.00000000	          0.00000000	
          0.54800000	        230.99155515	        725.50567504	        -32.34755805	         -0.79268415	          0.00000000	          0.13339051	          0.00000000	          0.00000000	          0.00000000	          0.00000000	          0.00000000	          0.00000000	          0.00000000	          1.79291183	          0.00000000	          0.00000000	          0.00000000	          0.00000000	
          0.55200000	        235.70822498	        710.60137519	        -32.80607806	         -0.79211797	          0.00000000	          0.13348257	          0.00000000	          0.00000000	          0.00000000	          0.00000000	          0.00000000	          0.00000000	          0.00000000	          1.51666405	          0.00000000	          0.00000000	          0.00000000	          0.00000000	
          0.55600000	        239.87421499	        693.81665352	        -32.85105819	         -0.79158854	          0.00000000	          0.13355626	          0.00000000	          0.00000000	          0.00000000	          0.00000000	          0.00000000	          0.00000000	          0.00000000	          1.24154603	          0.00000000	          0.00000000	          0.00000000	          0.00000000	
          0.56000000	        243.46051283	        675.15900148	        -32.25933464	         -0.79111405	          0.00000000	          0.13359339	          0.00000000	          0.00000000	          0.00000000	          0.00000000	          0.00000000	          0.00000000	          0.00000000	          0.98628553	          0.00000000	          0.00000000	          0.00000000	          0.00000000	
          0.56400000	        246.41791734	        654.54826771	        -30.89889009	         -0.79070984	          0.00000000	          0.13358277	          0.00000000	          0.00000000	          0.00000000	          0.00000000	          0.00000000	          0.00000000	          0.00000000	          0.76149533	          0.00000000	          0.00000000	          0.00000000	          0.00000000	
          0.56800000	        248.64946654	        631.81674602	        -28.73652792	         -0.79039292	          0.00000000	          0.13351736	          0.00000000	          0.00000000	          0.00000000	          0.00000000	          0.00000000	          0.00000000	          0.00000000	          0.56844479	          0.00000000	          0.00000000	          0.00000000	          0.00000000	
          0.57200000	        249.98457797	        606.72550920	        -25.82601027	         -0.79018007	          0.00000000	          0.13339348	          0.00000000	          0.00000000	          0.00000000	          0.00000000	          0.00000000	          0.00000000	          0.00000000	          0.40028208	          0.00000000	          0.00000000	          0.00000000	          0.00000000	
          0.57600000	        250.16430207	        578.97534763	        -22.28494613	         -0.79008496	          0.00000000	          0.13321080	        -12.24392967	        145.25594271	          2.65607689	         -0.10593278	         -0.05000000	         -0.01359510	          0.00000000	          0.24541996	          0.00000000	          0.00000000	         -0.87810008	          0.00000000	
          0.58000000	        248.83804966	        548.21784333	        -18.26451509	         -0.79012381	          0.00000000	          0.13296936	        -39.79424449	        353.18085989	         13.82304979	         -0.09994806	         -0.05000000	         -0.01369371	          0.00000000	          0.09220926	          0.00000000	          0.00000000	         -1.38433056	          0.00000000	
          0.58400000	        245.56906751	        514.09195951	        -13.91884348	         -0.79031792	          0.00000000	          0.13266452	        -70.65311895	        537.16284220	         23.46727046	         -0.09466942	         -0.05000000	         -0.01372481	          0.00000000	         -0.06637945	          0.00000000	          0.00000000	         -1.79741756	          0.00000000	
          0.58800000	        239.85904210	        476.29658549	         -9.39187137	         -0.79068243	          0.00000000	          0.13227744	       -106.10959620	        680.36688347	         30.16135287	         -0.08987747	         -0.05000000	         -0.01363885	          0.00000000	         -0.22937141	          0.00000000	          0.00000000	         -2.04018189	          0.00000000	
          0.59200000	        231.21886744	        434.68109004	         -4.82904224	         -0.79121676	          0.00000000	          0.13179668	       -143.02210044	        776.19426747	         32.50534926	         -0.08554868	         -0.05000000	         -0.01339327	          0.00000000	         -0.38654013	          0.00000000	          0.00000000	         -2.05123310	          0.00000000	
